<mxfile host="app.diagrams.net" agent="Mozilla/5.0 (Windows NT 10.0; Win64; x64) AppleWebKit/537.36 (KHTML, like Gecko) Chrome/133.0.0.0 Safari/537.36" version="26.0.13">
  <diagram id="C5RBs43oDa-KdzZeNtuy" name="Page-1">
    <mxGraphModel dx="3160" dy="1176" grid="1" gridSize="10" guides="1" tooltips="1" connect="1" arrows="1" fold="1" page="1" pageScale="1" pageWidth="827" pageHeight="1169" math="0" shadow="0">
      <root>
        <mxCell id="WIyWlLk6GJQsqaUBKTNV-0" />
        <mxCell id="WIyWlLk6GJQsqaUBKTNV-1" parent="WIyWlLk6GJQsqaUBKTNV-0" />
        <mxCell id="qj_qt_bq18a2W61ubxum-1" value="&lt;u&gt;&lt;font style=&quot;font-size: 14px;&quot;&gt;id&lt;/font&gt;&lt;/u&gt;" style="ellipse;whiteSpace=wrap;html=1;" vertex="1" parent="WIyWlLk6GJQsqaUBKTNV-1">
          <mxGeometry x="-742" y="198" width="120" height="80" as="geometry" />
        </mxCell>
        <mxCell id="qj_qt_bq18a2W61ubxum-2" value="username" style="ellipse;whiteSpace=wrap;html=1;" vertex="1" parent="WIyWlLk6GJQsqaUBKTNV-1">
          <mxGeometry x="-742" y="305" width="120" height="80" as="geometry" />
        </mxCell>
        <mxCell id="qj_qt_bq18a2W61ubxum-3" value="email" style="ellipse;whiteSpace=wrap;html=1;" vertex="1" parent="WIyWlLk6GJQsqaUBKTNV-1">
          <mxGeometry x="-742" y="412" width="120" height="80" as="geometry" />
        </mxCell>
        <mxCell id="qj_qt_bq18a2W61ubxum-4" value="password" style="ellipse;whiteSpace=wrap;html=1;" vertex="1" parent="WIyWlLk6GJQsqaUBKTNV-1">
          <mxGeometry x="-742" y="519" width="120" height="80" as="geometry" />
        </mxCell>
        <mxCell id="qj_qt_bq18a2W61ubxum-5" value="role" style="ellipse;whiteSpace=wrap;html=1;flipV=1;" vertex="1" parent="WIyWlLk6GJQsqaUBKTNV-1">
          <mxGeometry x="-742" y="627" width="120" height="80" as="geometry" />
        </mxCell>
        <mxCell id="qj_qt_bq18a2W61ubxum-6" value="is_active" style="ellipse;whiteSpace=wrap;html=1;" vertex="1" parent="WIyWlLk6GJQsqaUBKTNV-1">
          <mxGeometry x="-742" y="734" width="120" height="80" as="geometry" />
        </mxCell>
        <mxCell id="qj_qt_bq18a2W61ubxum-7" value="is_online" style="ellipse;whiteSpace=wrap;html=1;" vertex="1" parent="WIyWlLk6GJQsqaUBKTNV-1">
          <mxGeometry x="-742" y="841" width="120" height="80" as="geometry" />
        </mxCell>
        <mxCell id="qj_qt_bq18a2W61ubxum-8" value="users" style="rounded=1;whiteSpace=wrap;html=1;fillColor=#dae8fc;strokeColor=#6c8ebf;" vertex="1" parent="WIyWlLk6GJQsqaUBKTNV-1">
          <mxGeometry x="-432" y="568" width="120" height="60" as="geometry" />
        </mxCell>
        <mxCell id="qj_qt_bq18a2W61ubxum-9" value="last_activity" style="ellipse;whiteSpace=wrap;html=1;" vertex="1" parent="WIyWlLk6GJQsqaUBKTNV-1">
          <mxGeometry x="-742" y="948" width="120" height="80" as="geometry" />
        </mxCell>
        <mxCell id="qj_qt_bq18a2W61ubxum-10" value="users_categories" style="rounded=1;whiteSpace=wrap;html=1;fillColor=#dae8fc;strokeColor=#6c8ebf;" vertex="1" parent="WIyWlLk6GJQsqaUBKTNV-1">
          <mxGeometry x="-192" y="325" width="120" height="60" as="geometry" />
        </mxCell>
        <mxCell id="qj_qt_bq18a2W61ubxum-11" value="users_feeds" style="rounded=1;whiteSpace=wrap;html=1;fillColor=#dae8fc;strokeColor=#6c8ebf;" vertex="1" parent="WIyWlLk6GJQsqaUBKTNV-1">
          <mxGeometry x="-192" y="788" width="120" height="60" as="geometry" />
        </mxCell>
        <mxCell id="qj_qt_bq18a2W61ubxum-12" value="have" style="rhombus;whiteSpace=wrap;html=1;" vertex="1" parent="WIyWlLk6GJQsqaUBKTNV-1">
          <mxGeometry x="-412" y="778" width="80" height="80" as="geometry" />
        </mxCell>
        <mxCell id="qj_qt_bq18a2W61ubxum-13" value="have" style="rhombus;whiteSpace=wrap;html=1;" vertex="1" parent="WIyWlLk6GJQsqaUBKTNV-1">
          <mxGeometry x="-412" y="315" width="80" height="80" as="geometry" />
        </mxCell>
        <mxCell id="qj_qt_bq18a2W61ubxum-14" value="contains" style="rhombus;whiteSpace=wrap;html=1;" vertex="1" parent="WIyWlLk6GJQsqaUBKTNV-1">
          <mxGeometry x="108" y="315" width="80" height="80" as="geometry" />
        </mxCell>
        <mxCell id="qj_qt_bq18a2W61ubxum-15" value="contains" style="rhombus;whiteSpace=wrap;html=1;direction=south;" vertex="1" parent="WIyWlLk6GJQsqaUBKTNV-1">
          <mxGeometry x="108" y="778" width="80" height="80" as="geometry" />
        </mxCell>
        <mxCell id="qj_qt_bq18a2W61ubxum-16" value="categories" style="rounded=1;whiteSpace=wrap;html=1;fillColor=#dae8fc;strokeColor=#6c8ebf;" vertex="1" parent="WIyWlLk6GJQsqaUBKTNV-1">
          <mxGeometry x="442" y="325" width="120" height="60" as="geometry" />
        </mxCell>
        <mxCell id="qj_qt_bq18a2W61ubxum-17" value="feeds" style="rounded=1;whiteSpace=wrap;html=1;fillColor=#dae8fc;strokeColor=#6c8ebf;" vertex="1" parent="WIyWlLk6GJQsqaUBKTNV-1">
          <mxGeometry x="442" y="788" width="120" height="60" as="geometry" />
        </mxCell>
        <mxCell id="qj_qt_bq18a2W61ubxum-18" value="contains" style="rhombus;whiteSpace=wrap;html=1;" vertex="1" parent="WIyWlLk6GJQsqaUBKTNV-1">
          <mxGeometry x="462" y="547" width="80" height="80" as="geometry" />
        </mxCell>
        <mxCell id="qj_qt_bq18a2W61ubxum-19" value="&lt;u&gt;user_id&lt;/u&gt;" style="ellipse;whiteSpace=wrap;html=1;" vertex="1" parent="WIyWlLk6GJQsqaUBKTNV-1">
          <mxGeometry x="-276" y="168" width="120" height="80" as="geometry" />
        </mxCell>
        <mxCell id="qj_qt_bq18a2W61ubxum-21" value="&lt;u style=&quot;line-height: 110%;&quot;&gt;category_id&lt;/u&gt;" style="ellipse;whiteSpace=wrap;html=1;" vertex="1" parent="WIyWlLk6GJQsqaUBKTNV-1">
          <mxGeometry x="-103" y="168" width="120" height="80" as="geometry" />
        </mxCell>
        <mxCell id="qj_qt_bq18a2W61ubxum-22" value="&lt;u&gt;user_id&lt;/u&gt;" style="ellipse;whiteSpace=wrap;html=1;" vertex="1" parent="WIyWlLk6GJQsqaUBKTNV-1">
          <mxGeometry x="-285" y="948" width="120" height="80" as="geometry" />
        </mxCell>
        <mxCell id="qj_qt_bq18a2W61ubxum-23" value="&lt;u&gt;feed_id&lt;/u&gt;" style="ellipse;whiteSpace=wrap;html=1;" vertex="1" parent="WIyWlLk6GJQsqaUBKTNV-1">
          <mxGeometry x="-99" y="948" width="120" height="80" as="geometry" />
        </mxCell>
        <mxCell id="qj_qt_bq18a2W61ubxum-25" value="&lt;u&gt;id&lt;/u&gt;" style="ellipse;whiteSpace=wrap;html=1;" vertex="1" parent="WIyWlLk6GJQsqaUBKTNV-1">
          <mxGeometry x="269" y="168" width="120" height="80" as="geometry" />
        </mxCell>
        <mxCell id="qj_qt_bq18a2W61ubxum-26" value="name" style="ellipse;whiteSpace=wrap;html=1;" vertex="1" parent="WIyWlLk6GJQsqaUBKTNV-1">
          <mxGeometry x="441" y="168" width="120" height="80" as="geometry" />
        </mxCell>
        <mxCell id="qj_qt_bq18a2W61ubxum-29" value="&lt;u&gt;id&lt;/u&gt;" style="ellipse;whiteSpace=wrap;html=1;" vertex="1" parent="WIyWlLk6GJQsqaUBKTNV-1">
          <mxGeometry x="272" y="958" width="120" height="80" as="geometry" />
        </mxCell>
        <mxCell id="qj_qt_bq18a2W61ubxum-30" value="url" style="ellipse;whiteSpace=wrap;html=1;" vertex="1" parent="WIyWlLk6GJQsqaUBKTNV-1">
          <mxGeometry x="442" y="958" width="120" height="80" as="geometry" />
        </mxCell>
        <mxCell id="qj_qt_bq18a2W61ubxum-31" value="created_at" style="ellipse;whiteSpace=wrap;html=1;" vertex="1" parent="WIyWlLk6GJQsqaUBKTNV-1">
          <mxGeometry x="597" y="168" width="120" height="80" as="geometry" />
        </mxCell>
        <mxCell id="qj_qt_bq18a2W61ubxum-33" value="&lt;u&gt;category_id&lt;/u&gt;" style="ellipse;whiteSpace=wrap;html=1;" vertex="1" parent="WIyWlLk6GJQsqaUBKTNV-1">
          <mxGeometry x="618" y="958" width="120" height="80" as="geometry" />
        </mxCell>
        <mxCell id="qj_qt_bq18a2W61ubxum-36" value="" style="endArrow=none;html=1;rounded=0;exitX=0.5;exitY=0;exitDx=0;exitDy=0;entryX=0.5;entryY=1;entryDx=0;entryDy=0;" edge="1" parent="WIyWlLk6GJQsqaUBKTNV-1" source="qj_qt_bq18a2W61ubxum-8" target="qj_qt_bq18a2W61ubxum-13">
          <mxGeometry width="50" height="50" relative="1" as="geometry">
            <mxPoint x="-387" y="508" as="sourcePoint" />
            <mxPoint x="-337" y="458" as="targetPoint" />
          </mxGeometry>
        </mxCell>
        <mxCell id="qj_qt_bq18a2W61ubxum-37" value="" style="endArrow=none;html=1;rounded=0;entryX=0.5;entryY=1;entryDx=0;entryDy=0;exitX=0.5;exitY=0;exitDx=0;exitDy=0;" edge="1" parent="WIyWlLk6GJQsqaUBKTNV-1" source="qj_qt_bq18a2W61ubxum-12" target="qj_qt_bq18a2W61ubxum-8">
          <mxGeometry width="50" height="50" relative="1" as="geometry">
            <mxPoint x="-400" y="727.5" as="sourcePoint" />
            <mxPoint x="-350" y="677.5" as="targetPoint" />
          </mxGeometry>
        </mxCell>
        <mxCell id="qj_qt_bq18a2W61ubxum-38" value="" style="endArrow=none;html=1;rounded=0;entryX=0;entryY=0.5;entryDx=0;entryDy=0;exitX=1;exitY=0.5;exitDx=0;exitDy=0;" edge="1" parent="WIyWlLk6GJQsqaUBKTNV-1" source="qj_qt_bq18a2W61ubxum-12" target="qj_qt_bq18a2W61ubxum-11">
          <mxGeometry width="50" height="50" relative="1" as="geometry">
            <mxPoint x="-302" y="843" as="sourcePoint" />
            <mxPoint x="-252" y="793" as="targetPoint" />
          </mxGeometry>
        </mxCell>
        <mxCell id="qj_qt_bq18a2W61ubxum-39" value="" style="endArrow=none;html=1;rounded=0;entryX=0.5;entryY=1;entryDx=0;entryDy=0;exitX=1;exitY=0.5;exitDx=0;exitDy=0;" edge="1" parent="WIyWlLk6GJQsqaUBKTNV-1" target="qj_qt_bq18a2W61ubxum-15">
          <mxGeometry width="50" height="50" relative="1" as="geometry">
            <mxPoint x="-72" y="817.5" as="sourcePoint" />
            <mxPoint x="68" y="817.5" as="targetPoint" />
          </mxGeometry>
        </mxCell>
        <mxCell id="qj_qt_bq18a2W61ubxum-40" value="" style="endArrow=none;html=1;rounded=0;entryX=0;entryY=0.5;entryDx=0;entryDy=0;exitX=1;exitY=0.5;exitDx=0;exitDy=0;" edge="1" parent="WIyWlLk6GJQsqaUBKTNV-1" source="qj_qt_bq18a2W61ubxum-13" target="qj_qt_bq18a2W61ubxum-10">
          <mxGeometry width="50" height="50" relative="1" as="geometry">
            <mxPoint x="-312" y="368" as="sourcePoint" />
            <mxPoint x="-222" y="358" as="targetPoint" />
          </mxGeometry>
        </mxCell>
        <mxCell id="qj_qt_bq18a2W61ubxum-41" value="" style="endArrow=none;html=1;rounded=0;entryX=0;entryY=0.5;entryDx=0;entryDy=0;exitX=1;exitY=0.5;exitDx=0;exitDy=0;" edge="1" parent="WIyWlLk6GJQsqaUBKTNV-1" source="qj_qt_bq18a2W61ubxum-10" target="qj_qt_bq18a2W61ubxum-14">
          <mxGeometry width="50" height="50" relative="1" as="geometry">
            <mxPoint x="-12" y="385" as="sourcePoint" />
            <mxPoint x="38" y="335" as="targetPoint" />
          </mxGeometry>
        </mxCell>
        <mxCell id="qj_qt_bq18a2W61ubxum-42" value="" style="endArrow=none;html=1;rounded=0;exitX=1;exitY=0.5;exitDx=0;exitDy=0;entryX=0;entryY=0.5;entryDx=0;entryDy=0;" edge="1" parent="WIyWlLk6GJQsqaUBKTNV-1" source="qj_qt_bq18a2W61ubxum-14" target="qj_qt_bq18a2W61ubxum-16">
          <mxGeometry width="50" height="50" relative="1" as="geometry">
            <mxPoint x="368" y="438" as="sourcePoint" />
            <mxPoint x="418" y="388" as="targetPoint" />
            <Array as="points" />
          </mxGeometry>
        </mxCell>
        <mxCell id="qj_qt_bq18a2W61ubxum-43" value="" style="endArrow=none;html=1;rounded=0;entryX=0.5;entryY=1;entryDx=0;entryDy=0;exitX=0.5;exitY=0;exitDx=0;exitDy=0;" edge="1" parent="WIyWlLk6GJQsqaUBKTNV-1" source="qj_qt_bq18a2W61ubxum-18" target="qj_qt_bq18a2W61ubxum-16">
          <mxGeometry width="50" height="50" relative="1" as="geometry">
            <mxPoint x="477" y="508" as="sourcePoint" />
            <mxPoint x="527" y="458" as="targetPoint" />
          </mxGeometry>
        </mxCell>
        <mxCell id="qj_qt_bq18a2W61ubxum-44" value="" style="endArrow=none;html=1;rounded=0;entryX=0.5;entryY=1;entryDx=0;entryDy=0;exitX=0.5;exitY=0;exitDx=0;exitDy=0;" edge="1" parent="WIyWlLk6GJQsqaUBKTNV-1" source="qj_qt_bq18a2W61ubxum-17" target="qj_qt_bq18a2W61ubxum-18">
          <mxGeometry width="50" height="50" relative="1" as="geometry">
            <mxPoint x="477" y="753" as="sourcePoint" />
            <mxPoint x="527" y="703" as="targetPoint" />
          </mxGeometry>
        </mxCell>
        <mxCell id="qj_qt_bq18a2W61ubxum-45" value="" style="endArrow=none;html=1;rounded=0;entryX=0;entryY=0.5;entryDx=0;entryDy=0;exitX=0.5;exitY=0;exitDx=0;exitDy=0;" edge="1" parent="WIyWlLk6GJQsqaUBKTNV-1" source="qj_qt_bq18a2W61ubxum-15" target="qj_qt_bq18a2W61ubxum-17">
          <mxGeometry width="50" height="50" relative="1" as="geometry">
            <mxPoint x="278" y="843" as="sourcePoint" />
            <mxPoint x="328" y="793" as="targetPoint" />
          </mxGeometry>
        </mxCell>
        <mxCell id="qj_qt_bq18a2W61ubxum-46" value="" style="endArrow=none;html=1;rounded=0;exitX=0;exitY=0;exitDx=0;exitDy=0;" edge="1" parent="WIyWlLk6GJQsqaUBKTNV-1" source="qj_qt_bq18a2W61ubxum-48">
          <mxGeometry width="50" height="50" relative="1" as="geometry">
            <mxPoint x="-552" y="998" as="sourcePoint" />
            <mxPoint x="-552" y="238" as="targetPoint" />
          </mxGeometry>
        </mxCell>
        <mxCell id="qj_qt_bq18a2W61ubxum-48" value="" style="shape=partialRectangle;whiteSpace=wrap;html=1;bottom=0;right=0;fillColor=none;rotation=-180;" vertex="1" parent="WIyWlLk6GJQsqaUBKTNV-1">
          <mxGeometry x="-622" y="968" width="70" height="20" as="geometry" />
        </mxCell>
        <mxCell id="qj_qt_bq18a2W61ubxum-51" value="" style="line;strokeWidth=1;html=1;" vertex="1" parent="WIyWlLk6GJQsqaUBKTNV-1">
          <mxGeometry x="-622" y="876" width="70" height="10" as="geometry" />
        </mxCell>
        <mxCell id="qj_qt_bq18a2W61ubxum-52" value="" style="line;strokeWidth=1;html=1;" vertex="1" parent="WIyWlLk6GJQsqaUBKTNV-1">
          <mxGeometry x="-622" y="770" width="70" height="10" as="geometry" />
        </mxCell>
        <mxCell id="qj_qt_bq18a2W61ubxum-53" value="" style="line;strokeWidth=1;html=1;" vertex="1" parent="WIyWlLk6GJQsqaUBKTNV-1">
          <mxGeometry x="-622" y="662" width="70" height="10" as="geometry" />
        </mxCell>
        <mxCell id="qj_qt_bq18a2W61ubxum-54" value="" style="line;strokeWidth=1;html=1;" vertex="1" parent="WIyWlLk6GJQsqaUBKTNV-1">
          <mxGeometry x="-622" y="233" width="70" height="10" as="geometry" />
        </mxCell>
        <mxCell id="qj_qt_bq18a2W61ubxum-57" value="" style="line;strokeWidth=1;html=1;" vertex="1" parent="WIyWlLk6GJQsqaUBKTNV-1">
          <mxGeometry x="-622" y="340" width="70" height="10" as="geometry" />
        </mxCell>
        <mxCell id="qj_qt_bq18a2W61ubxum-58" value="" style="line;strokeWidth=1;html=1;" vertex="1" parent="WIyWlLk6GJQsqaUBKTNV-1">
          <mxGeometry x="-622" y="447" width="70" height="10" as="geometry" />
        </mxCell>
        <mxCell id="qj_qt_bq18a2W61ubxum-59" value="" style="line;strokeWidth=1;html=1;" vertex="1" parent="WIyWlLk6GJQsqaUBKTNV-1">
          <mxGeometry x="-622" y="554" width="70" height="10" as="geometry" />
        </mxCell>
        <mxCell id="qj_qt_bq18a2W61ubxum-65" value="" style="endArrow=none;html=1;rounded=0;exitX=0.5;exitY=0;exitDx=0;exitDy=0;entryX=0.5;entryY=1;entryDx=0;entryDy=0;" edge="1" parent="WIyWlLk6GJQsqaUBKTNV-1" source="qj_qt_bq18a2W61ubxum-10" target="qj_qt_bq18a2W61ubxum-80">
          <mxGeometry width="50" height="50" relative="1" as="geometry">
            <mxPoint x="-422" y="468" as="sourcePoint" />
            <mxPoint x="-124" y="278" as="targetPoint" />
          </mxGeometry>
        </mxCell>
        <mxCell id="qj_qt_bq18a2W61ubxum-66" value="" style="shape=partialRectangle;whiteSpace=wrap;html=1;bottom=0;right=0;fillColor=none;direction=west;" vertex="1" parent="WIyWlLk6GJQsqaUBKTNV-1">
          <mxGeometry x="420" y="248" width="80" height="30" as="geometry" />
        </mxCell>
        <mxCell id="qj_qt_bq18a2W61ubxum-67" value="" style="shape=partialRectangle;whiteSpace=wrap;html=1;bottom=1;right=0;fillColor=none;top=0;" vertex="1" parent="WIyWlLk6GJQsqaUBKTNV-1">
          <mxGeometry x="326" y="248" width="94" height="30" as="geometry" />
        </mxCell>
        <mxCell id="qj_qt_bq18a2W61ubxum-68" value="" style="endArrow=none;html=1;rounded=0;entryX=0;entryY=0;entryDx=0;entryDy=0;exitX=0.5;exitY=0;exitDx=0;exitDy=0;" edge="1" parent="WIyWlLk6GJQsqaUBKTNV-1" target="qj_qt_bq18a2W61ubxum-66">
          <mxGeometry width="50" height="50" relative="1" as="geometry">
            <mxPoint x="500" y="325" as="sourcePoint" />
            <mxPoint x="260" y="418" as="targetPoint" />
          </mxGeometry>
        </mxCell>
        <mxCell id="qj_qt_bq18a2W61ubxum-72" value="" style="shape=partialRectangle;whiteSpace=wrap;html=1;bottom=1;right=1;fillColor=none;top=0;left=0;" vertex="1" parent="WIyWlLk6GJQsqaUBKTNV-1">
          <mxGeometry x="500" y="248" width="158" height="30" as="geometry" />
        </mxCell>
        <mxCell id="qj_qt_bq18a2W61ubxum-73" value="" style="shape=partialRectangle;whiteSpace=wrap;html=1;bottom=1;right=1;left=1;top=0;fillColor=none;routingCenterX=-0.5;rotation=-180;" vertex="1" parent="WIyWlLk6GJQsqaUBKTNV-1">
          <mxGeometry x="-225" y="908" width="187" height="40" as="geometry" />
        </mxCell>
        <mxCell id="qj_qt_bq18a2W61ubxum-75" value="" style="endArrow=none;html=1;rounded=0;entryX=0.5;entryY=1;entryDx=0;entryDy=0;exitX=0.5;exitY=1;exitDx=0;exitDy=0;" edge="1" parent="WIyWlLk6GJQsqaUBKTNV-1" source="qj_qt_bq18a2W61ubxum-73" target="qj_qt_bq18a2W61ubxum-11">
          <mxGeometry width="50" height="50" relative="1" as="geometry">
            <mxPoint x="-112" y="888" as="sourcePoint" />
            <mxPoint x="-62" y="838" as="targetPoint" />
          </mxGeometry>
        </mxCell>
        <mxCell id="qj_qt_bq18a2W61ubxum-76" value="" style="shape=partialRectangle;whiteSpace=wrap;html=1;bottom=1;right=1;left=1;top=0;fillColor=none;routingCenterX=-0.5;rotation=-180;" vertex="1" parent="WIyWlLk6GJQsqaUBKTNV-1">
          <mxGeometry x="327" y="898" width="175" height="60" as="geometry" />
        </mxCell>
        <mxCell id="qj_qt_bq18a2W61ubxum-77" value="" style="shape=partialRectangle;whiteSpace=wrap;html=1;bottom=0;right=1;fillColor=none;left=0;" vertex="1" parent="WIyWlLk6GJQsqaUBKTNV-1">
          <mxGeometry x="502" y="898" width="170" height="60" as="geometry" />
        </mxCell>
        <mxCell id="qj_qt_bq18a2W61ubxum-79" value="" style="endArrow=none;html=1;rounded=0;entryX=0.5;entryY=1;entryDx=0;entryDy=0;exitX=0;exitY=0;exitDx=0;exitDy=0;" edge="1" parent="WIyWlLk6GJQsqaUBKTNV-1" source="qj_qt_bq18a2W61ubxum-77" target="qj_qt_bq18a2W61ubxum-17">
          <mxGeometry width="50" height="50" relative="1" as="geometry">
            <mxPoint x="448" y="798" as="sourcePoint" />
            <mxPoint x="498" y="748" as="targetPoint" />
          </mxGeometry>
        </mxCell>
        <mxCell id="qj_qt_bq18a2W61ubxum-80" value="" style="shape=partialRectangle;whiteSpace=wrap;html=1;bottom=1;right=1;left=1;top=0;fillColor=none;routingCenterX=-0.5;" vertex="1" parent="WIyWlLk6GJQsqaUBKTNV-1">
          <mxGeometry x="-220" y="248" width="177" height="20" as="geometry" />
        </mxCell>
        <mxCell id="qj_qt_bq18a2W61ubxum-82" value="" style="endArrow=none;html=1;rounded=0;exitX=0;exitY=0.5;exitDx=0;exitDy=0;" edge="1" parent="WIyWlLk6GJQsqaUBKTNV-1" source="qj_qt_bq18a2W61ubxum-8">
          <mxGeometry width="50" height="50" relative="1" as="geometry">
            <mxPoint x="-212" y="558" as="sourcePoint" />
            <mxPoint x="-552" y="598" as="targetPoint" />
          </mxGeometry>
        </mxCell>
        <mxCell id="qj_qt_bq18a2W61ubxum-83" value="N:N" style="text;html=1;align=center;verticalAlign=middle;whiteSpace=wrap;rounded=0;" vertex="1" parent="WIyWlLk6GJQsqaUBKTNV-1">
          <mxGeometry x="118" y="278" width="60" height="40" as="geometry" />
        </mxCell>
        <mxCell id="qj_qt_bq18a2W61ubxum-87" value="1:N" style="text;html=1;align=center;verticalAlign=middle;whiteSpace=wrap;rounded=0;" vertex="1" parent="WIyWlLk6GJQsqaUBKTNV-1">
          <mxGeometry x="-355" y="770" width="60" height="40" as="geometry" />
        </mxCell>
        <mxCell id="qj_qt_bq18a2W61ubxum-88" value="N:N" style="text;html=1;align=center;verticalAlign=middle;whiteSpace=wrap;rounded=0;" vertex="1" parent="WIyWlLk6GJQsqaUBKTNV-1">
          <mxGeometry x="118" y="738" width="60" height="40" as="geometry" />
        </mxCell>
        <mxCell id="qj_qt_bq18a2W61ubxum-89" value="1:N" style="text;html=1;align=center;verticalAlign=middle;whiteSpace=wrap;rounded=0;" vertex="1" parent="WIyWlLk6GJQsqaUBKTNV-1">
          <mxGeometry x="-402" y="275" width="60" height="40" as="geometry" />
        </mxCell>
        <mxCell id="qj_qt_bq18a2W61ubxum-90" value="1:N" style="text;html=1;align=center;verticalAlign=middle;whiteSpace=wrap;rounded=0;" vertex="1" parent="WIyWlLk6GJQsqaUBKTNV-1">
          <mxGeometry x="542" y="567" width="60" height="40" as="geometry" />
        </mxCell>
        <mxCell id="qj_qt_bq18a2W61ubxum-91" value="DIAGRAMA DE ENTIDAD - RELACIÓN" style="text;strokeColor=none;fillColor=none;html=1;fontSize=24;fontStyle=1;verticalAlign=middle;align=center;" vertex="1" parent="WIyWlLk6GJQsqaUBKTNV-1">
          <mxGeometry x="-60" y="20" width="100" height="40" as="geometry" />
        </mxCell>
      </root>
    </mxGraphModel>
  </diagram>
</mxfile>
